<?xml version="1.0" encoding="UTF-8"?>
<svg version="1.1" xmlns="http://www.w3.org/2000/svg" width="500" height="500">
<path d="M0 0 C0.81082031 -0.02835937 1.62164062 -0.05671875 2.45703125 -0.0859375 C8.01573575 0.8524418 11.28281969 3.14161918 14.53125 7.5703125 C15.26775182 8.87031009 15.98533195 10.18114114 16.6875 11.5 C17.54783018 13.03535069 18.40853173 14.57049332 19.26953125 16.10546875 C19.73311035 16.9464209 20.19668945 17.78737305 20.67431641 18.65380859 C22.89344283 22.64451254 25.18855696 26.59016652 27.47851562 30.54052734 C29.41211435 33.87653276 31.33791916 37.21692888 33.26171875 40.55859375 C37.06669818 47.16615035 40.8765651 53.77087693 44.6875 60.375 C45.9375235 62.54165311 47.18752347 64.70831979 48.4375 66.875 C49.365625 68.48375 49.365625 68.48375 50.3125 70.125 C75.625 114 75.625 114 100.9375 157.875 C101.55616943 158.94733887 102.17483887 160.01967773 102.81225586 161.12451172 C104.0631448 163.29276264 105.31395852 165.46105697 106.56469727 167.62939453 C109.67548335 173.02217915 112.78754238 178.41422093 115.90234375 183.8046875 C122.18950733 194.68787073 128.46318084 205.57869621 134.70559692 216.48760986 C135.71446476 218.25040911 136.72428056 220.01266573 137.73413086 221.77490234 C139.56049777 224.97016196 141.37667848 228.17090871 143.1875 231.375 C143.77378174 232.4052832 144.36006348 233.43556641 144.96411133 234.49707031 C145.50962646 235.4712793 146.0551416 236.44548828 146.6171875 237.44921875 C147.1004248 238.30733154 147.58366211 239.16544434 148.08154297 240.04956055 C149.65382114 243.35550968 149.83256636 245.79129798 149.1875 249.375 C147.35102673 253.53122898 145.05352442 256.01313405 141.1875 258.375 C137.43826153 258.98044226 133.71847756 258.92297626 129.92752075 258.89639282 C128.77662582 258.90404392 127.62573089 258.91169501 126.43996036 258.91957796 C123.24933692 258.93664445 120.05930136 258.93577132 116.86866212 258.92721677 C113.42613511 258.92228471 109.98371659 258.94030753 106.54122925 258.95529175 C99.79841271 258.98079739 93.05575542 258.9843717 86.31289877 258.97969122 C80.83203364 258.97612569 75.35121686 258.97962236 69.87035751 258.98814011 C68.70042747 258.98992567 68.70042747 258.98992567 67.50686248 258.99174731 C65.92239627 258.99417081 64.33793005 258.99659908 62.75346385 258.99903207 C47.89226132 259.02078784 33.03114954 259.01645597 18.16994189 259.00426237 C4.57576913 258.99392478 -9.01811697 259.01643177 -22.61223303 259.05445881 C-36.57149547 259.09320783 -50.53062227 259.10972894 -64.48993886 259.10221231 C-72.3267104 259.09838684 -80.16323798 259.10337683 -87.99996567 259.13164139 C-94.67191917 259.15546142 -101.34347858 259.15828819 -108.01543747 259.13406105 C-111.4190435 259.12227707 -114.82192861 259.12009919 -118.22548676 259.14406586 C-121.91718036 259.16491631 -125.60693062 259.14887137 -129.29855347 259.1234436 C-130.3720004 259.13819217 -131.44544733 259.15294074 -132.55142295 259.16813624 C-138.66490934 259.0794162 -142.13391417 258.25123981 -146.58838093 253.95415628 C-148.76871495 251.14144937 -149.28686323 247.9936311 -149.20703125 244.48828125 C-148.30711032 239.66791269 -145.26678673 235.54433046 -142.8125 231.375 C-142.09700878 230.08845945 -141.38633649 228.79923089 -140.6796875 227.5078125 C-135.42001956 217.89589182 -129.9482545 208.41670996 -124.40820312 198.96411133 C-119.82246593 191.13137238 -115.3048156 183.26148558 -110.8125 175.375 C-105.8590174 166.68081162 -100.86871361 158.0100231 -95.8125 149.375 C-90.7806021 140.7798271 -85.80860876 132.15187778 -80.875 123.5 C-73.84646493 111.17474804 -66.77009566 98.87777933 -59.67138672 86.59277344 C-57.17560656 82.27252357 -54.68243703 77.95077013 -52.18945312 73.62890625 C-50.31540437 70.38003504 -48.44090572 67.13142368 -46.56640625 63.8828125 C-44.05180564 59.52434612 -41.53895339 55.16487809 -39.02734375 50.8046875 C-36.53369214 46.47569029 -34.03595999 42.14908779 -31.53515625 37.82421875 C-28.9875847 33.41788093 -26.45644062 29.0025667 -23.93359375 24.58203125 C-22.68510668 22.40873303 -21.43641638 20.23555154 -20.1875 18.0625 C-19.6195874 17.06009277 -19.0516748 16.05768555 -18.46655273 15.02490234 C-13.99449289 7.27529602 -9.79935514 0.15432055 0 0 Z M-4.34619141 11.51879883 C-6.72850872 14.27773075 -8.49785846 16.89825278 -10.2734375 20.07421875 C-10.90193604 21.18748535 -11.53043457 22.30075195 -12.17797852 23.44775391 C-12.84784299 24.65265594 -13.51768283 25.85757167 -14.1875 27.0625 C-14.894811 28.32002841 -15.60307916 29.57701889 -16.31225586 30.83349609 C-17.77036112 33.41755493 -19.22524337 36.00338796 -20.67822266 38.59033203 C-23.86484753 44.25314415 -27.12017935 49.87619703 -30.375 55.5 C-31.61599382 57.64837489 -32.85687916 59.79681244 -34.09765625 61.9453125 C-34.71012207 63.00524414 -35.32258789 64.06517578 -35.95361328 65.15722656 C-39.07574605 70.56170645 -42.19391204 75.96847412 -45.3125 81.375 C-46.56248122 83.5416775 -47.81248121 85.70834417 -49.0625 87.875 C-49.68125 88.9475 -50.3 90.02 -50.9375 91.125 C-56.5625 100.875 -56.5625 100.875 -58.43725586 104.12451172 C-59.6881448 106.29276264 -60.93895852 108.46105697 -62.18969727 110.62939453 C-65.30048335 116.02217915 -68.41254238 121.41422093 -71.52734375 126.8046875 C-78.34752637 138.61129484 -85.1357326 150.43527 -91.88986206 162.27972412 C-97.0437389 171.31458567 -102.26163773 180.31025744 -107.51708984 189.28637695 C-112.75031283 198.23778631 -117.90174614 207.23517324 -123.02514648 216.24975586 C-126.07615982 221.61404611 -129.14578949 226.96390186 -132.3046875 232.265625 C-132.82780518 233.14822998 -133.35092285 234.03083496 -133.88989258 234.94018555 C-134.85245024 236.55879516 -135.82316404 238.17259319 -136.8034668 239.78051758 C-137.88353949 241.60179616 -138.85958129 243.48408524 -139.8125 245.375 C-139.4825 246.365 -139.1525 247.355 -138.8125 248.375 C-136.42191235 249.57029382 -134.96175217 249.5003194 -132.29283142 249.50084114 C-131.33563233 249.50344889 -130.37843325 249.50605664 -129.39222813 249.50874341 C-128.33329822 249.50651268 -127.27436831 249.50428196 -126.18334961 249.50198364 C-125.06415854 249.50354363 -123.94496748 249.50510362 -122.79186153 249.50671089 C-119.01617581 249.51072113 -115.24052982 249.50753113 -111.46484375 249.50439453 C-108.76831951 249.50574856 -106.07179807 249.50749213 -103.37527466 249.50970459 C-96.79618924 249.5141604 -90.21711521 249.51318665 -83.63802934 249.51029195 C-78.29293617 249.50803718 -72.94784619 249.50772572 -67.60275269 249.50881577 C-66.46335185 249.50904561 -66.46335185 249.50904561 -65.30093282 249.50928011 C-63.75800935 249.50959982 -62.21508588 249.50992403 -60.67216241 249.5102527 C-46.19075756 249.51310694 -31.70935904 249.50982135 -17.22795522 249.50445233 C-4.79161542 249.49998434 7.64471505 249.50076029 20.08105469 249.50537109 C34.50924934 249.51071784 48.93743846 249.51283225 63.36563396 249.50975883 C64.90300687 249.50944027 66.44037978 249.5091259 67.97775269 249.50881577 C68.7342475 249.50866149 69.49074231 249.50850721 70.27016121 249.50834826 C75.61127134 249.50748341 80.95237796 249.50894531 86.29348755 249.51129532 C92.79901166 249.51409463 99.30452371 249.51335227 105.81004643 249.50801457 C109.13175314 249.50537934 112.45343543 249.50490426 115.77514267 249.50766373 C119.36956542 249.51037548 122.96393058 249.50699374 126.55834961 249.50198364 C127.61727952 249.50421436 128.67620943 249.50644509 129.76722813 249.50874341 C130.72442721 249.50613566 131.6816263 249.50352791 132.66783142 249.50084114 C133.4983348 249.50067879 134.32883818 249.50051644 135.18450832 249.50034916 C137.26027787 249.50130923 137.26027787 249.50130923 139.1875 248.375 C138.73783125 242.72512979 137.0867427 238.86298876 134.0625 234.0625 C133.14550324 232.55567957 132.23025232 231.04779582 131.31640625 229.5390625 C130.81512207 228.71696289 130.31383789 227.89486328 129.79736328 227.04785156 C126.78999212 222.05472153 123.90320185 216.99165402 121 211.9375 C119.70854217 209.69519221 118.41687258 207.45300637 117.125 205.2109375 C116.4753125 204.08268555 115.825625 202.95443359 115.15625 201.79199219 C113.21043134 198.41479997 111.26197709 195.03914404 109.3125 191.6640625 C103.58404006 181.74579366 97.86302602 171.82367194 92.1875 161.875 C82.95900773 145.70138586 73.65159378 129.57360623 64.25 113.5 C58.51001184 103.68358813 52.8542669 93.82034553 47.22119141 83.94238281 C40.88157926 72.82682644 34.488445 61.74253061 28.0859375 50.66308594 C26.09629045 47.21702544 24.11021002 43.7689299 22.125 40.3203125 C21.44867547 39.1459809 20.77232481 37.97166435 20.09594727 36.79736328 C18.82494356 34.5903857 17.55455229 32.38305524 16.28491211 30.17529297 C14.59242606 27.23795158 12.89075221 24.3061078 11.1875 21.375 C10.63980957 20.41851562 10.09211914 19.46203125 9.52783203 18.4765625 C9.00431152 17.57679688 8.48079102 16.67703125 7.94140625 15.75 C7.25220093 14.55503906 7.25220093 14.55503906 6.54907227 13.3359375 C5.17582462 11.10210075 5.17582462 11.10210075 2.1875 9.375 C-1.85672576 8.94438283 -1.85672576 8.94438283 -4.34619141 11.51879883 Z " fill="#000000" transform="translate(249.8125,120.625)"/>
<path d="M0 0 C9.57 0 19.14 0 29 0 C29 25.41 29 50.82 29 77 C39.23 77 49.46 77 60 77 C59.67 59.51 59.34 42.02 59 24 C68.24 24 77.48 24 87 24 C87 48.42 87 72.84 87 98 C59.28 98 31.56 98 3 98 C2.505 50.48 2.505 50.48 2 2 C1.34 2 0.68 2 0 2 C0 1.34 0 0.68 0 0 Z " fill="#000000" transform="translate(196,240)"/>
<path d="M0 0 C25.41 0 50.82 0 77 0 C77 6.93 77 13.86 77 21 C51.59 21 26.18 21 0 21 C0 14.07 0 7.14 0 0 Z " fill="#000000" transform="translate(231,240)"/>
</svg>
